<?xml version="1.0" standalone="no"?>
<!DOCTYPE svg PUBLIC "-//W3C//DTD SVG 1.1//EN" "http://www.w3.org/Graphics/SVG/1.1/DTD/svg11.dtd" >
<svg xmlns="http://www.w3.org/2000/svg" xmlns:xlink="http://www.w3.org/1999/xlink" version="1.1">
<metadata></metadata>
<defs>
<font id="db_helvethaica_x35_thin" horiz-adv-x="0" >
<font-face units-per-em="2048" ascent="1638" descent="-410" />
<missing-glyph horiz-adv-x="348" />
<glyph unicode="&#x2b;&#x2d;" horiz-adv-x="839" d="M74 14v60h692v-60h-692zM74 494v58h314v312h60v-312h318v-58h-318v-316h-60v316h-314z" />
<glyph unicode="&#x2e;&#x2e;&#x2e;" horiz-adv-x="1399" d="M176 0v118h112v-118h-112zM644 0v118h112v-118h-112zM1108 0v118h112v-118h-112z" />
<glyph unicode="&#x3c;&#x3d;" horiz-adv-x="839" d="M68 8v60h702v-60h-702zM68 504v72l702 318v-67l-634 -287l634 -288v-64z" />
<glyph unicode="&#x3e;&#x3d;" horiz-adv-x="839" d="M68 8v60h702v-60h-702zM70 188v64l633 288l-633 287v67l702 -318v-72z" />
<glyph unicode="&#xe4f;&#x22;" horiz-adv-x="1014" d="M86 420q0 58 16 112q49 164 191 248q103 58 211 58t205 -56t155 -151q58 -103 58 -210t-58 -212q-81 -141 -249 -191q-53 -16 -111 -16q-108 0 -211 58q-140 78 -191 249q-16 53 -16 111zM143 420q0 -150 105 -256q105 -105 256 -105q97 0 182 49q120 66 166 216 q12 46 12 96q0 150 -105 255t-254 105t-255 -105q-107 -105 -107 -255zM279 419q0 94 65 160t159 66t160 -65t66 -159t-65 -160t-159 -66t-160 65t-66 159zM336 420q0 -68 50 -118t116 -50t120 50q50 52 50 117t-50 119q-87 79 -183 36q-61 -27 -90 -90q-13 -30 -13 -64z M386 1174h62l-4 -207h-54zM566 1174h64l-4 -207h-56z" />
<glyph unicode="&#xe0e;&#xe3a;" horiz-adv-x="878" d="M43 0v50h99v396q0 89 -37 128q-15 16 -37 33q61 181 236 231q56 16 120 16q340 0 340 -348v-778h-48q-112 96 -236 96t-254 -118v64q124 103 256 103t225 -73v714q0 223 -184 274q-43 12 -115 12t-118 -24q-99 -50 -138 -122q-10 -20 -16 -34q51 -43 60 -118q2 -26 2 -56 v-446h-155zM665 -419q0 34 14 48q22 21 56 21t50 -38q5 -12 5 -24q0 -26 -18 -44t-38 -18t-30 5q-39 16 -39 50z" />
<glyph unicode="&#xe0f;&#xe3a;" horiz-adv-x="878" d="M43 0v50h99v396q0 88 -37 127q-15 15 -37 33q61 182 236 232q56 16 120 16q340 0 340 -348v-778h-60q-44 100 -136 100q-60 0 -110 -59q-15 -19 -23 -41h-45q-12 46 -45 73t-67 27q-112 0 -130 -100h-56q15 99 115 140q29 12 61 12q102 0 147 -82q59 82 147 82t145 -63 v697q0 123 -57 194q-68 92 -226 92q-92 0 -136 -24q-117 -62 -152 -156q51 -43 60 -118q2 -26 2 -56v-446h-155zM665 -419q0 34 14 48q22 21 56 21t50 -38q5 -12 5 -24q0 -26 -18 -44t-38 -18t-30 5q-39 16 -39 50z" />
<glyph unicode="&#xe0e;&#xe38;" horiz-adv-x="878" d="M43 0v50h99v396q0 89 -37 128q-15 16 -37 33q61 181 236 231q56 16 120 16q340 0 340 -348v-778h-48q-112 96 -236 96t-254 -118v64q124 103 256 103t225 -73v714q0 223 -184 274q-43 12 -115 12t-118 -24q-99 -50 -138 -122q-10 -20 -16 -34q51 -43 60 -118q2 -26 2 -56 v-446h-155zM634 -350h130v-232h-57v178h-73v54z" />
<glyph unicode="&#xe0f;&#xe38;" horiz-adv-x="878" d="M43 0v50h99v396q0 88 -37 127q-15 15 -37 33q61 182 236 232q56 16 120 16q340 0 340 -348v-778h-60q-44 100 -136 100q-60 0 -110 -59q-15 -19 -23 -41h-45q-12 46 -45 73t-67 27q-112 0 -130 -100h-56q15 99 115 140q29 12 61 12q102 0 147 -82q59 82 147 82t145 -63 v697q0 123 -57 194q-68 92 -226 92q-92 0 -136 -24q-117 -62 -152 -156q51 -43 60 -118q2 -26 2 -56v-446h-155zM634 -350h130v-232h-57v178h-73v54z" />
<glyph unicode="&#xe0e;&#xe39;" horiz-adv-x="878" d="M43 0v50h99v396q0 89 -37 128q-15 16 -37 33q61 181 236 231q56 16 120 16q340 0 340 -348v-778h-48q-112 96 -236 96t-254 -118v64q124 103 256 103t225 -73v714q0 223 -184 274q-43 12 -115 12t-118 -24q-99 -50 -138 -122q-10 -20 -16 -34q51 -43 60 -118q2 -26 2 -56 v-446h-155zM316 -350h132v-90q0 -113 130 -113t129 117v86h57v-86q0 -118 -98 -154q-34 -14 -82 -14q-190 0 -190 164v37h-78v53z" />
<glyph unicode="&#xe0f;&#xe39;" horiz-adv-x="878" d="M43 0v50h99v396q0 88 -37 127q-15 15 -37 33q61 182 236 232q56 16 120 16q340 0 340 -348v-778h-60q-44 100 -136 100q-60 0 -110 -59q-15 -19 -23 -41h-45q-12 46 -45 73t-67 27q-112 0 -130 -100h-56q15 99 115 140q29 12 61 12q102 0 147 -82q59 82 147 82t145 -63 v697q0 123 -57 194q-68 92 -226 92q-92 0 -136 -24q-117 -62 -152 -156q51 -43 60 -118q2 -26 2 -56v-446h-155zM316 -350h132v-90q0 -113 130 -113t129 117v86h57v-86q0 -118 -98 -154q-34 -14 -82 -14q-190 0 -190 164v37h-78v53z" />
<glyph unicode="&#xd;" horiz-adv-x="395" />
<glyph unicode=" "  horiz-adv-x="348" />
<glyph unicode="&#x09;" horiz-adv-x="348" />
<glyph unicode="&#xa0;" horiz-adv-x="348" />
<glyph unicode="!" horiz-adv-x="399" d="M158 0v118h84v-118h-84zM168 630v370h63v-370l-17 -377h-33z" />
<glyph unicode="&#x22;" horiz-adv-x="518" d="M136 690v310h60v-310h-60zM320 690v310h60v-310h-60z" />
<glyph unicode="#" horiz-adv-x="778" d="M56 323v56h161l31 235h-154v54h160l42 323h62l-44 -323h208l42 323h58l-43 -323h150v-54h-157l-32 -235h148v-56h-155l-43 -323h-55l42 323h-209l-42 -323h-58l42 323h-154zM276 379h208l31 235h-207z" />
<glyph unicode="$" horiz-adv-x="880" d="M72 309h60q11 -200 172 -253q48 -16 104 -21v453q-148 34 -192 60q-114 69 -114 177q0 109 60 188q76 100 246 108v109h61v-112q120 -12 205 -86t101 -202h-63q-23 152 -156 210q-41 18 -87 22v-426q215 -43 289 -126q53 -62 53 -151q0 -201 -206 -262q-56 -17 -136 -19 v-120h-61v122q-234 13 -310 188q-25 60 -26 141zM164 755q0 -91 60 -134t184 -71v415q-107 -7 -176 -63q-68 -56 -68 -147zM469 32h2q147 0 231 92q48 55 48 133q0 109 -92 155q-65 35 -189 61v-441z" />
<glyph unicode="%" horiz-adv-x="1243" d="M102 738q0 119 51 186q53 76 165 76t164 -71t52 -191q0 -185 -116 -242q-40 -20 -98 -20t-100 20q-118 57 -118 242zM162 737q0 -140 81 -190q31 -19 69 -19t62 8q84 30 98 152q4 24 4 54q0 135 -81 186q-29 20 -75 20t-77 -20q-81 -51 -81 -191zM294 0l581 1000h65 l-578 -1000h-68zM717 257q0 186 117 243q42 20 100 20q112 0 165 -76q49 -66 49 -187q0 -184 -115 -241q-41 -20 -99 -20q-111 0 -164 71t-53 190zM776 240q0 -66 26 -111q26 -43 56 -63t76 -20q83 0 124 69q32 52 32 114q0 239 -148 239q-119 0 -152 -114q-14 -48 -14 -114 z" />
<glyph unicode="&#x26;" horiz-adv-x="854" d="M70 246q0 155 248 303q-128 165 -128 254t60 143.5t148 54.5q89 0 147.5 -54.5t58.5 -140.5q0 -139 -198 -274l60 -72t60 -71.5l60 -71t60 -73.5q34 75 39 185h59q-2 -22 -7 -88.5t-51 -148.5q18 -22 37 -47t39 -50t39 -49t37 -46h-75l-112 142q-140 -162 -295 -162 q-128 0 -207 73t-79 193zM129 244q0 -97 66 -153.5t160 -56.5q95 0 164 63t93 95l-258 312q-225 -131 -225 -260zM250 809q0 -62 45 -126.5t75 -105.5q79 57 127 112t48 117t-43 101.5t-104 39.5t-104.5 -38t-43.5 -100z" />
<glyph unicode="'" horiz-adv-x="389" d="M166 690v310h61v-310h-61z" />
<glyph unicode="(" horiz-adv-x="338" d="M82 372q0 254 98 502q32 81 78 154h56q-169 -301 -169 -689q0 -210 99 -467q30 -76 68 -146h-54q-176 306 -176 646z" />
<glyph unicode=")" horiz-adv-x="338" d="M24 1028h56q129 -204 165 -489q11 -87 11 -167q0 -340 -176 -646h-54q115 217 155 461q12 79 12 152q0 388 -169 689z" />
<glyph unicode="*" horiz-adv-x="491" d="M44 850l17 45l161 -52v169h50v-169l162 52l14 -43l-166 -56l107 -136l-41 -34l-104 140l-106 -140l-40 34l106 140z" />
<glyph unicode="+" horiz-adv-x="839" d="M74 326v56h316v314h58v-314h318v-56h-318v-318h-58v318h-316z" />
<glyph unicode="," horiz-adv-x="389" d="M134 0v134h120v-120q0 -169 -120 -213v64q57 29 62 135h-62z" />
<glyph unicode="-" horiz-adv-x="518" d="M72 326v56h374v-56h-374z" />
<glyph unicode="." horiz-adv-x="389" d="M138 0v118h112v-118h-112z" />
<glyph unicode="/" horiz-adv-x="465" d="M-8 -20l422 1040h59l-420 -1040h-61z" />
<glyph unicode="0" horiz-adv-x="778" d="M62 488q0 398 208 488q51 22 119 22q127 0 206 -81q121 -124 121 -429q0 -398 -208 -488q-51 -22 -119 -22q-327 0 -327 510zM120 488q0 -458 268 -458t268 458t-268 457q-268 1 -268 -457z" />
<glyph unicode="1" horiz-adv-x="778" d="M150 736v56q122 7 161 26.5t67.5 50.5t43.5 106h47v-975h-59v814q-57 -59 -136.5 -67.5t-123.5 -10.5z" />
<glyph unicode="2" horiz-adv-x="778" d="M67 0q8 92 40 146q51 84 112 134q60 51 112 85q92 62 141 104q144 124 144 257q0 105 -66 161q-66 57 -146 57t-124 -22q-129 -65 -136 -256h-56q4 148 80 239t211 91t216 -71t81 -199q0 -203 -232 -354q-148 -102 -193 -143q-89 -80 -111 -169h540v-60h-613z" />
<glyph unicode="3" horiz-adv-x="778" d="M62 290h56q-4 -121 68 -192q71 -70 188 -70t188 59q82 64 82 176q0 111 -69 171t-179 60h-62v50h62q118 0 178 83q34 47 34 108q0 208 -227 208q-105 2 -169 -71q-64 -72 -72 -182h-57q16 208 177 282q52 23 116 23q201 0 267 -137q23 -48 23 -116q0 -154 -132 -223 q168 -49 168 -270q0 -55 -26 -109t-70 -91q-87 -73 -230 -73q-144 0 -231 80t-83 234z" />
<glyph unicode="4" horiz-adv-x="778" d="M56 234v48l456 693h55v-689h139v-52h-139v-234h-59v234h-452zM125 286h383v582q-120 -181 -202.5 -307.5t-180.5 -274.5z" />
<glyph unicode="5" horiz-adv-x="778" d="M67 256h59q13 -104 80 -166q67 -63 174 -64t183 80t75 203q-1 121 -72 201t-182 80t-191 -65q-26 -21 -46 -51h-51l90 501h463v-56h-413l-64 -343q81 66 215 66t223 -94q88 -94 88 -239t-96 -241q-95 -92 -239 -92q-116 0 -200 76t-96 204z" />
<glyph unicode="6" horiz-adv-x="778" d="M66 474q0 334 154 465q73 62 181 62q235 0 283 -236h-60q-44 184 -223 184q-106 -2 -169 -77q-107 -120 -107 -408q42 90 118 131t153 41q147 0 232 -91q84 -91 84 -231q0 -141 -90 -237q-90 -95 -227 -95q-222 0 -301 240q-28 106 -28 252zM142 315q0 -105 62 -189 q76 -90 190 -90t187 80q74 80 73 194q-1 113 -68 193q-66 79 -181 79t-189 -81t-74 -186z" />
<glyph unicode="7" horiz-adv-x="778" d="M86 919v56h600v-59q-361 -396 -396 -916h-62q35 352 144.5 555t241.5 364h-528z" />
<glyph unicode="8" horiz-adv-x="778" d="M66 266q10 194 182 259q-144 70 -144 223q0 116 81 180q81 65 202 65q192 0 261 -138q24 -45 24 -94q0 -132 -74 -195q-27 -24 -67 -44q131 -47 169 -173q10 -41 10 -99t-26 -112q-49 -105 -172 -146q-58 -18 -124 -18q-139 0 -226 73q-96 76 -96 219zM124 267 q0 -113 80 -179q74 -62 184 -62q176 0 242 134q22 44 22 104q0 114 -78 174t-187 60t-186 -59t-77 -172zM164 759q0 -81 36 -131q63 -81 189 -81q127 0 189 85q34 46 34 103q0 102 -63 155t-162 52q-98 -1 -161 -52q-62 -51 -62 -131z" />
<glyph unicode="9" horiz-adv-x="778" d="M66 664q0 141 90 237q93 95 227 95q224 0 301 -240q28 -106 28 -277t-52 -292q-83 -211 -283 -211q-173 0 -247 133q-24 43 -36 103h60q44 -184 228 -184q100 0 164 77q107 120 107 409q-43 -91 -118 -131q-74 -41 -152 -41q-77 0 -135 24t-98 67q-84 90 -84 231z M125 670q0 -56 17 -106q57 -168 231 -168q117 0 190 81t73 186q0 104 -62 188q-74 91 -188 91t-188 -80q-75 -80 -73 -192z" />
<glyph unicode=":" horiz-adv-x="389" d="M138 0v118h112v-118h-112zM138 572v118h112v-118h-112z" />
<glyph unicode=";" horiz-adv-x="389" d="M134 0v134h120v-120q0 -169 -120 -213v64q57 29 62 135h-62zM138 572v118h112v-118h-112z" />
<glyph unicode="&#x3c;" horiz-adv-x="839" d="M68 319v73l702 318v-68l-634 -286l634 -288v-65z" />
<glyph unicode="=" horiz-adv-x="839" d="M72 207v57h696v-57h-696zM72 442v58h696v-58h-696z" />
<glyph unicode="&#x3e;" horiz-adv-x="839" d="M70 3v65l632 288l-632 286v68l702 -318v-73z" />
<glyph unicode="?" horiz-adv-x="772" d="M108 709q6 144 84 228q79 85 214 85q192 0 259 -146q21 -48 21 -111t-31 -120t-73 -100q-80 -79 -108 -119t-33 -88q-5 -49 -7 -81h-63q3 152 91 247q28 30 56 56q105 99 105 190q0 62 -16 99q-51 117 -197 117q-170 0 -222 -152q-16 -47 -19 -105h-61zM360 0v118h84 v-118h-84z" />
<glyph unicode="@" horiz-adv-x="1118" d="M72 504q0 136 68 255q103 172 303 227q127 35 264 3q185 -39 278 -187q61 -99 61 -208t-43 -200t-116 -147q-72 -56 -147 -56q-86 0 -94 94q-77 -92 -168 -92q-90 -1 -146 55t-56 142t47 178q67 141 192 192q40 16 81 16q109 0 156 -118l34 92h60l-132 -386 q-25 -83 0 -108q10 -12 35 -12q54 0 112 54q83 77 115 209q10 41 10 89q0 155 -120 255q-120 99 -268 99q-149 0 -250 -62q-153 -86 -201 -273t44 -345q92 -157 270 -206q59 -16 115 -16q154 0 296 106q43 32 76 72h60q-70 -104 -184 -167t-249 -63t-256 68 q-174 98 -230 303q-17 67 -17 137zM334 396q0 -67 38 -108q38 -42 84 -42q134 0 223 193q34 79 34 124q0 107 -71 147q-50 27 -116 -2q-97 -43 -157 -170q-35 -74 -35 -142z" />
<glyph unicode="A" horiz-adv-x="880" d="M18 0l405 1000h49l390 -1000h-70l-123 323h-453l-127 -323h-71zM236 375h413l-203 529z" />
<glyph unicode="B" horiz-adv-x="934" d="M121 0v1000h397q208 0 280 -128q25 -46 25 -110q0 -169 -153 -236q190 -48 190 -249q0 -277 -342 -277h-397zM184 58h334q281 0 281 221q-4 215 -281 215h-334v-436zM184 550h334q177 0 231 122q15 36 15 82q0 95 -67 142q-67 48 -181 48h-332v-394z" />
<glyph unicode="C" horiz-adv-x="985" d="M74 500q0 305 199 447q107 75 247 75t248 -81t134 -223h-62q-17 60 -47 107q-95 141 -279 141t-282 -139q-97 -136 -97 -321v-7q2 -188 95 -316q106 -149 294 -149q139 0 225 91t107 238h60q-24 -188 -127 -287q-102 -98 -255 -98t-261 74q-199 142 -199 448z" />
<glyph unicode="D" horiz-adv-x="958" d="M121 0v1000h325q438 -12 438 -501t-438 -499h-325zM184 58h262q238 0 325 182q51 111 51 246q0 355 -231 432q-69 24 -147 24h-260v-884z" />
<glyph unicode="E" horiz-adv-x="829" d="M121 0v1000h649v-58h-586v-396h547v-58h-547v-430h592v-58h-655z" />
<glyph unicode="F" horiz-adv-x="751" d="M121 0v1000h593v-58h-530v-396h469v-58h-469v-488h-63z" />
<glyph unicode="G" horiz-adv-x="1036" d="M74 500q0 305 199 447q107 75 251 75q226 0 338 -176q37 -58 55 -136h-63q-22 105 -109 180q-87 76 -221 76q-191 0 -295 -146q-92 -127 -92 -318t98 -326q66 -91 172 -124q53 -18 113 -18q217 0 312 210q38 83 42 190h-327v55h387v-489h-60v196q-112 -218 -350 -218 q-142 0 -251 74q-199 142 -199 448z" />
<glyph unicode="H" horiz-adv-x="985" d="M121 0v1000h63v-446h617v446h63v-1000h-63v496h-617v-496h-63z" />
<glyph unicode="I" horiz-adv-x="313" d="M125 0v1000h63v-1000h-63z" />
<glyph unicode="J" horiz-adv-x="698" d="M50 298h60q0 -262 206 -262q158 0 188 134q10 44 10 103v726h64v-726q0 -152 -62 -222q-62 -69 -206 -69q-143 0 -208 96q-40 64 -46 122t-6 98z" />
<glyph unicode="K" horiz-adv-x="907" d="M121 0v1000h63v-578l592 578h78l-421 -413l453 -587h-74l-420 547l-208 -204v-343h-63z" />
<glyph unicode="L" horiz-adv-x="751" d="M121 0v1000h63v-944h543v-56h-606z" />
<glyph unicode="M" horiz-adv-x="1173" d="M121 0v1000h82l385 -913l382 913h82v-1000h-62v894l-378 -894h-49l-379 895v-895h-63z" />
<glyph unicode="N" horiz-adv-x="991" d="M121 0v1000h81l605 -910v910h63v-1000h-72l-614 918v-918h-63z" />
<glyph unicode="O" horiz-adv-x="1036" d="M68 500q0 147 50 257q79 186 262 245q62 20 138 20q142 0 251 -75q199 -142 199 -447q0 -220 -112 -364q-77 -101 -200 -138q-62 -20 -138 -20q-215 0 -333 151q-117 151 -117 371zM131 500q5 -275 170 -398q91 -68 216 -68t219 68q170 130 170 398q0 188 -96 320 q-67 93 -172 127q-54 19 -120 19q-189 0 -293 -146q-94 -125 -94 -320z" />
<glyph unicode="P" horiz-adv-x="880" d="M121 0v1000h419q197 0 259 -163q20 -53 20 -119q0 -129 -75 -206q-75 -76 -204 -76h-356v-436h-63zM184 492h334q174 0 223 125q17 43 17 101q0 173 -142 212q-44 14 -98 14h-334v-452z" />
<glyph unicode="Q" horiz-adv-x="1036" d="M68 496q0 219 112 367q125 158 330 158h8h7q136 0 244 -74q199 -142 199 -448q0 -249 -150 -407q42 -35 142 -114l-38 -38l-146 117q-108 -79 -258 -79q-215 0 -338 158q-112 141 -112 360zM131 499q5 -274 170 -397q91 -68 217 -68t211 60l-139 110l36 42l146 -117 q134 130 134 370q0 128 -32 202q-57 133 -144 199q-87 65 -212 65q-188 0 -293 -145q-94 -125 -94 -321z" />
<glyph unicode="R" horiz-adv-x="934" d="M121 0v1000h434q190 0 263 -145q24 -49 24 -99q0 -101 -35 -168t-135 -108q136 -62 153 -314q5 -95 28 -166h-62q-23 68 -24 124q-5 269 -149 316q-34 12 -82 12h-352v-452h-63zM184 508h354q159 0 221 124q19 40 19 92q0 156 -131 204q-43 16 -100 16h-363v-436z" />
<glyph unicode="S" horiz-adv-x="880" d="M72 309h61q0 -96 48 -164q85 -111 261 -111t260 91q48 55 48 140q0 86 -74 136q-50 34 -146 59l-213 50q-215 52 -215 234q0 97 62 175q82 103 262 103q137 0 235 -77t114 -214h-63q-23 163 -186 217q-48 16 -101 16q-175 0 -241 -126q-20 -42 -20 -88q0 -83 48 -125 t118 -56l232 -56q112 -27 160 -69q89 -78 89 -162q0 -199 -163 -269q-89 -35 -184 -35q-275 0 -362 182q-29 62 -30 149z" />
<glyph unicode="T" horiz-adv-x="782" d="M29 946v54h725v-54h-332v-946h-64v946h-329z" />
<glyph unicode="U" horiz-adv-x="958" d="M111 359v640h63v-608v-17q0 -254 178 -318q57 -18 127 -18q305 0 305 353v608h64v-640q0 -263 -200 -349q-70 -30 -170 -30t-168 30q-198 86 -199 349z" />
<glyph unicode="V" horiz-adv-x="866" d="M36 1000h68l328 -916l329 916h67l-368 -1000h-56z" />
<glyph unicode="W" horiz-adv-x="1280" d="M38 1000h66l244 -926l255 926h83l256 -914l236 914h66l-264 -1000h-78l-257 915l-257 -915h-82z" />
<glyph unicode="X" horiz-adv-x="811" d="M26 0l341 512l-324 488h75l288 -432l287 432h73l-324 -488l340 -512h-75l-303 456l-304 -456h-74z" />
<glyph unicode="Y" horiz-adv-x="870" d="M33 1000h75l328 -528l330 528h71l-371 -588v-412h-62v412z" />
<glyph unicode="Z" horiz-adv-x="803" d="M31 0v45l637 905h-592v50h669v-46l-637 -904h637v-50h-714z" />
<glyph unicode="[" horiz-adv-x="338" d="M119 -268v1290h200v-57h-137v-1177h137v-56h-200z" />
<glyph unicode="\" horiz-adv-x="465" d="M-8 1020h61l420 -1040h-59z" />
<glyph unicode="]" horiz-adv-x="338" d="M19 -212h137v1177h-137v57h200v-1290h-200v56z" />
<glyph unicode="^" horiz-adv-x="839" d="M70 340l320 620h58l320 -620h-62l-288 553l-281 -553h-67z" />
<glyph unicode="_" horiz-adv-x="698" d="M0 -104h698v-62h-698v62z" />
<glyph unicode="`" horiz-adv-x="358" d="M82 1010h80l124 -168h-48z" />
<glyph unicode="a" horiz-adv-x="725" d="M68 180q0 46 13 78q26 64 88 96q61 32 122 41t101 15q92 14 130 40t38 76q0 172 -196 172q-80 0 -122 -29q-77 -53 -88 -135h-57q31 214 271 214q140 0 205 -82q39 -49 39 -136v-402q0 -64 39 -74q15 -4 39 -5v-49q-70 0 -97 22q-28 22 -34 84q-79 -122 -254 -122 q-174 0 -221 111q-16 38 -16 85zM122 182q0 -107 110 -140q30 -8 72 -8q99 0 177 65q79 65 79 182v132q-39 -34 -130 -49q-26 -4 -50 -8q-206 -28 -247 -114q-11 -24 -11 -60z" />
<glyph unicode="b" horiz-adv-x="809" d="M109 0v1008h53v-411q79 151 270 151t265 -194q32 -84 32 -174q0 -277 -164 -365q-57 -31 -137 -31q-181 0 -266 161v-145h-53zM162 371q0 -133 68 -232q43 -62 119 -92q36 -13 80 -13q89 0 143 48q28 23 47 55q57 84 57 223t-63 239q-63 99 -190 99t-194 -97t-67 -230z " />
<glyph unicode="c" horiz-adv-x="749" d="M80 376q0 148 84 258q84 112 237 112q154 0 227 -125q24 -43 38 -97h-55q-41 172 -224 172q-51 0 -101 -27t-84 -73q-70 -96 -70 -229q0 -139 71 -236q70 -95 195 -95q76 0 138 54t78 144h56q-28 -173 -174 -230q-46 -18 -112 -18t-126 30q-121 60 -158 201 q-20 67 -20 159z" />
<glyph unicode="d" horiz-adv-x="809" d="M80 335q0 81 8 129q16 98 67 170q50 73 132 99q42 15 94 15q186 0 267 -151v411h52v-1008h-52v145q-92 -161 -267 -161q-104 0 -173 54q-62 44 -95 130t-33 167zM133 369q0 -87 25 -163t66 -112q69 -60 153 -60t143 45t93 124q35 78 35 142q0 211 -114 304 q-64 49 -153 49q-154 0 -221 -172q-27 -69 -27 -157z" />
<glyph unicode="e" horiz-adv-x="766" d="M80 334q0 114 32 202q54 148 175 193q43 17 95 17q91 0 173 -66q83 -66 113 -228q9 -48 10 -96h-543q0 -129 55 -222q63 -102 193 -102q171 0 231 180h54q-68 -230 -289 -230t-281 224q-18 66 -18 128zM136 408h484q-20 190 -148 262q-40 24 -90 24q-95 0 -162 -79 t-84 -207z" />
<glyph unicode="f" horiz-adv-x="381" d="M31 680v49h123v77q0 98 36 150t122 52q20 0 54 -4l4 -43q-24 3 -56 3q-94 0 -104 -97q-4 -31 -4 -65v-73h144v-49h-144v-680h-52v680h-123z" />
<glyph unicode="g" horiz-adv-x="792" d="M80 383q0 159 79 261q79 103 224 103q170 0 248 -150v132h51v-683q-3 -255 -160 -321q-59 -25 -128 -25q-48 0 -100 12q-150 34 -184 178h53q39 -142 220 -142q248 0 248 298v117q-85 -155 -242 -155t-233 108t-76 267zM133 374q0 -133 64 -224t186 -93q80 0 133 45 q83 65 108 192q9 46 9 90q0 115 -65 212q-69 102 -186 102q-86 0 -141 -47q-103 -81 -108 -277z" />
<glyph unicode="h" horiz-adv-x="762" d="M109 0v1007h53v-411q82 144 248 144q193 0 231 -159q12 -51 12 -113v-468h-53v470q0 224 -188 224q-100 0 -173 -77t-77 -195v-422h-53z" />
<glyph unicode="i" horiz-adv-x="295" d="M119 895v113h57v-113h-57zM121 0v729h53v-729h-53z" />
<glyph unicode="j" horiz-adv-x="295" d="M-6 -231q10 -1 19 -1q91 0 103 74q5 25 5 57v830h53v-831q0 -176 -146 -176q-16 0 -34 2v45zM119 895v113h57v-113h-57z" />
<glyph unicode="k" horiz-adv-x="723" d="M109 0v1008h53v-665l417 387h73l-295 -273l315 -457h-65l-289 419l-156 -143v-276h-53z" />
<glyph unicode="l" horiz-adv-x="293" d="M119 0v1008h53v-1008h-53z" />
<glyph unicode="m" horiz-adv-x="1157" d="M109 0v730h53v-111q67 127 225 127q109 0 149 -54t52 -98q55 152 225 152q112 0 173.5 -62t61.5 -184v-500h-52v502q0 96 -47.5 146t-120.5 50t-148.5 -46t-75.5 -240v-412h-53v494q0 141 -61.5 172.5t-110.5 31.5q-101 0 -159 -84t-58 -212v-402h-53z" />
<glyph unicode="n" horiz-adv-x="796" d="M109 0v730h53v-126q70 142 262 142q54 0 104 -18q100 -36 140 -135q20 -51 20 -115v-478h-53v474q0 112 -65 168q-56 52 -134 52q-131 0 -203 -83q-71 -83 -71 -203v-408h-53z" />
<glyph unicode="o" horiz-adv-x="778" d="M70 363q0 163 82 268q53 71 142 100q43 15 95 15q199 0 282 -193q37 -86 37 -178q0 -269 -182 -363q-60 -30 -137 -30q-150 0 -235 109q-84 109 -84 272zM124 361q0 -87 33 -163t76 -108q77 -58 159 -58q81 0 138 47q88 67 114 199q8 40 8 84q0 133 -72 232 q-73 100 -191 100q-83 0 -141 -48q-89 -65 -115 -199q-9 -43 -9 -86z" />
<glyph unicode="p" horiz-adv-x="809" d="M109 -278v1007h53v-145q77 134 194 154q36 7 94 7h4q56 0 111 -31q164 -91 164 -350q0 -163 -73 -268q-76 -114 -228 -114q-186 0 -266 150v-410h-53zM162 364q0 -197 114 -284q65 -50 147 -50q81 0 137 45t86 123t30 143t-10 130q-16 105 -94 175q-64 50 -125 50 q-144 0 -215 -102q-70 -103 -70 -230z" />
<glyph unicode="q" horiz-adv-x="809" d="M80 364q0 97 30 189q53 135 174 178q43 14 88 14q45 -1 81 -7q76 -14 135 -74q32 -31 60 -80v145h52v-1007h-52v410q-79 -150 -267 -150q-144 0 -228 114q-73 105 -73 268zM133 368q0 -136 63 -237t185 -101q88 0 162 57t98 195q7 42 7 82q0 128 -70 226q-47 68 -118 92 q-36 14 -80 14q-126 0 -190 -104q-57 -88 -57 -224z" />
<glyph unicode="r" horiz-adv-x="454" d="M109 0v730h51v-151q68 118 148 139.5t116 21.5v-50q-110 0 -186 -89t-76 -204v-397h-53z" />
<glyph unicode="s" horiz-adv-x="674" d="M68 210h54q13 -89 74 -133q61 -45 148 -45q38 0 74 11q133 41 133 145q0 97 -104 132q-31 10 -63 19l-106 27q-188 48 -188 188q0 97 74 145q74 49 172 49q147 0 214 -114q24 -40 32 -92h-54q-11 80 -72 120q-49 36 -135 37h-3q-85 0 -142 -57q-36 -36 -36 -81 q0 -47 30 -86q37 -42 136 -67l108 -28q138 -35 178 -116q14 -30 14 -78t-24 -89q-68 -113 -239 -113t-241 126q-24 42 -34 100z" />
<glyph unicode="t" horiz-adv-x="393" d="M25 680v49h123v233h52v-233h148v-49h-148v-532q0 -56 17 -79q17 -24 74 -26h57v-45h-59q-82 0 -104 24q-37 39 -37 126v532h-123z" />
<glyph unicode="u" horiz-adv-x="760" d="M90 251v478h53v-475q0 -108 63 -164q63 -57 140 -57q131 0 201 84q69 84 69 203v409h54v-729h-54v123q-81 -139 -263 -139t-243 152q-20 50 -20 115z" />
<glyph unicode="v" horiz-adv-x="647" d="M32 730h59l235 -652l230 652h58l-265 -730h-49z" />
<glyph unicode="w" horiz-adv-x="1030" d="M36 730h58l196 -650l197 650h56l199 -650l194 650h58l-226 -730h-56l-199 646l-195 -646h-56z" />
<glyph unicode="x" horiz-adv-x="674" d="M44 0l260 376l-241 354h63l210 -306l210 306h63l-242 -352l263 -378h-66l-228 330l-228 -330h-64z" />
<glyph unicode="y" horiz-adv-x="647" d="M32 729h58l242 -666l228 666h56l-294 -843q-30 -81 -66 -116q-36 -36 -109 -36h-49v48h49q61 0 92 46q21 29 67 161z" />
<glyph unicode="z" horiz-adv-x="651" d="M48 0v36l466 646h-434v48h506v-37l-467 -646h481v-47h-552z" />
<glyph unicode="{" horiz-adv-x="465" d="M130 348v54q100 20 100 235v227q0 117 56 145q21 11 54 11h57v-57h-57q-25 -2 -37 -23q-11 -21 -11 -76v-256q0 -178 -84 -235q88 -59 84 -231v-253q0 -99 48 -99h57v-56h-57q-89 0 -105 92q-5 28 -5 63v225q0 214 -100 234z" />
<glyph unicode="|" horiz-adv-x="311" d="M125 -20v1040h61v-1040h-61z" />
<glyph unicode="}" horiz-adv-x="465" d="M70 -210h57q25 0 36 21t11 78v253q-4 173 84 231q-84 63 -84 235v256q0 82 -27 94q-9 4 -20 5h-57v57h57q111 0 111 -156v-227q0 -215 100 -235v-54q-100 -20 -100 -234v-225q0 -155 -111 -155h-57v56z" />
<glyph unicode="~" horiz-adv-x="839" d="M108 314q44 74 112 102q24 10 68 10t140 -45t129 -45q64 0 111 57q14 17 28 35l38 -38q-16 -23 -32 -43q-57 -68 -123 -68q-66 1 -126 29q-128 62 -181 61q-29 2 -63 -26t-56 -71z" />
<glyph unicode="&#xa2;" horiz-adv-x="778" d="M92 361q0 148 78 257t209 128v102h53v-99q87 -6 155 -67t91 -159h-57q-30 114 -123 157q-30 14 -66 17v-663q69 8 110 48q71 69 82 154h58q-27 -168 -158 -230q-42 -20 -92 -24v-128h-53v128q-135 15 -211 123t-76 256zM161 248q29 -116 117 -176q43 -30 101 -38v660 q-113 -16 -173 -113q-29 -45 -44 -101q-30 -116 -1 -232z" />
<glyph unicode="&#xa3;" horiz-adv-x="778" d="M46 456v56h115q-73 136 -73 222q0 184 158 254q68 30 145 30q228 0 293 -180q22 -59 22 -135h-62q-6 186 -142 239q-46 18 -99 18q-170 0 -231 -121q-20 -43 -20 -89t11 -87t35 -83q23 -41 36 -68h249v-56h-222q31 -73 31 -139q0 -130 -97 -237q96 29 207 -6 q112 -35 157 -32q82 6 147 66l36 -48q-96 -101 -253 -70q-45 8 -113 29t-122 20q-55 -1 -140 -51l-40 54q158 133 158 271q0 54 -42 143h-144z" />
<glyph unicode="&#xa5;" horiz-adv-x="903" d="M50 1000h74l328 -528l331 528h71l-322 -508h168v-58h-205l-12 -21v-106h217v-58h-217v-249h-63v249h-217v58h217v105q-10 15 -14 22h-203v58h166z" />
<glyph unicode="&#xa9;" horiz-adv-x="1118" d="M35 500q0 222 151 373t374 151q222 0 373 -151t151 -372t-151 -375q-153 -150 -373 -150t-374 150q-151 152 -151 374zM93 500q0 -197 133 -336q136 -139 332 -139t333 139t137 333q0 195 -135 337q-137 140 -334 140q-130 0 -239 -65q-161 -96 -211 -284 q-16 -59 -16 -125zM314 492q0 128 65 216t185 88t181 -107q19 -37 31 -83h-60q-16 64 -56 99t-92 35q-95 0 -146 -72q-50 -72 -50 -176q0 -160 106 -222q35 -20 73 -20q100 0 144 91q13 29 19 65h64q-14 -95 -73 -154t-133 -59t-120 24q-138 71 -138 275z" />
<glyph unicode="&#xab;" horiz-adv-x="596" d="M90 344v84l174 158v-78l-132 -123l132 -123v-85zM316 344v84l173 158v-78l-131 -123l131 -123v-85z" />
<glyph unicode="&#xad;" horiz-adv-x="518" d="M72 326v56h374v-56h-374z" />
<glyph unicode="&#xae;" horiz-adv-x="1118" d="M35 500q0 222 151 373t374 151q222 0 373 -151t151 -372t-151 -375q-153 -150 -373 -150t-374 150q-151 152 -151 374zM93 500q0 -197 133 -336q136 -139 332 -139t333 139t137 333q0 195 -135 337q-137 140 -334 140q-130 0 -239 -65q-161 -96 -211 -284 q-16 -59 -16 -125zM377 205v589h225q100 0 144 -40t44 -121q0 -106 -92 -145q-28 -12 -60 -20q67 -102 176 -263h-74l-170 267h-132v-267h-61zM438 524h138q154 0 154 109t-128 109h-164v-218z" />
<glyph unicode="&#xbb;" horiz-adv-x="596" d="M106 180v82l131 123l-131 123v80l174 -160v-84zM332 180v82l130 123l-130 123v80l174 -160v-84z" />
<glyph unicode="&#xbc;" horiz-adv-x="1167" d="M76 818v48q76 5 106 19q58 26 72 90h42v-557h-52v434q-48 -34 -168 -34zM261 0l597 975h64l-595 -975h-66zM666 136v40l285 432h44v-424h88v-48h-88v-136h-51v136h-278zM729 184h215v328z" />
<glyph unicode="&#xbd;" horiz-adv-x="1167" d="M76 818v48q76 5 106 19q58 26 72 90h42v-557h-52v434q-48 -34 -168 -34zM202 0l597 975h64l-595 -975h-66zM708 0q11 107 116 197q34 27 67 49t71 53q38 30 57 71q19 40 19 86t-36 79t-82 33t-71 -14q-70 -39 -77 -154h-52q6 148 110 197q34 17 76 17q124 0 171 -97 q15 -31 15 -70q0 -132 -144 -225q-113 -75 -146 -123q-16 -22 -26 -47h318v-52h-386z" />
<glyph unicode="&#xbe;" horiz-adv-x="1167" d="M96 546h51q3 -112 90 -149q28 -12 77 -12t95 35t47 100t-41 100q-42 36 -106 36h-45v46h45q47 -2 74 19q49 38 49 97q0 114 -131 114q-60 0 -96 -42t-45 -113h-50q14 140 114 187q34 16 95 16t98 -30q64 -52 65 -136q1 -85 -80 -132q104 -42 104 -170q0 -76 -60 -125 t-145 -49q-137 0 -188 121q-16 39 -17 87zM337 0l597 975h64l-595 -975h-66zM686 136v40l286 432h44v-424h88v-48h-88v-136h-51v136h-279zM750 184h215v328z" />
<glyph unicode="&#xd7;" horiz-adv-x="694" d="M56 110l246 246l-246 246l44 45l246 -246l246 246l46 -45l-247 -246l247 -248l-44 -44l-246 248l-248 -248z" />
<glyph unicode="&#xf7;" horiz-adv-x="839" d="M72 326v56h694v-56h-694zM342 94q0 42 22 64t47 22q40 0 63.5 -22t23.5 -47q0 -38 -30.5 -69.5t-78 -10t-47.5 62.5zM342 601q0 33 21.5 56t47.5 23q40 0 63.5 -23.5t23.5 -47.5q0 -39 -24 -63t-47 -24t-37.5 6.5t-31 23t-16.5 49.5z" />
<glyph unicode="&#xe01;" horiz-adv-x="862" d="M52 609q61 180 235 231q56 16 122 16q235 0 310 -178q26 -67 28 -170v-508h-57v516q0 123 -57 194q-69 92 -226 92q-91 0 -136 -24q-115 -60 -151 -156q62 -52 62 -174v-448h-58v448q0 87 -36 128q-14 16 -36 33z" />
<glyph unicode="&#xe02;" horiz-adv-x="696" d="M37 788v52h157l176 -714l178 714h58l-210 -840h-51l-197 788h-111z" />
<glyph unicode="&#xe03;" horiz-adv-x="770" d="M60 840h58q18 -100 110 -100q44 0 75 30t42 70h61v-126q0 -106 -122 -218q-52 -48 -73 -82t-21 -96v-60q0 -172 123 -212q39 -12 82 -12q94 0 149 51q54 51 54 179v576h57v-592q0 -266 -259 -266q-121 0 -191 64q-71 71 -71 202v36q0 96 14 132t33 56t65 63q46 42 75 82 t29 99v27q-48 -55 -122 -55q-108 0 -150 91q-13 29 -18 61z" />
<glyph unicode="&#xe04;" horiz-adv-x="882" d="M115 0v504q0 221 127 303q80 51 200 51q326 0 326 -354v-504h-57v504q1 302 -269 302t-270 -302v-205q55 118 197 158q43 11 93 13v-52q-183 0 -258 -169q-32 -72 -32 -153v-96h-57z" />
<glyph unicode="&#xe05;" horiz-adv-x="893" d="M115 0v538q0 198 103 270q40 30 100 43l128 -131l122 131q210 -44 210 -313v-538h-57v538q0 207 -136 253l-138 -145l-143 146q-132 -35 -132 -254v-235q42 86 121 126q79 41 169 41v-52q-138 0 -214 -97t-76 -225v-96h-57z" />
<glyph unicode="&#xe06;" horiz-adv-x="856" d="M38 840h60q23 -100 111 -100q66 0 105 59q12 19 18 41h61v-126q3 -113 -123 -220q-52 -44 -72 -80t-18 -96q4 -121 88 -206t201 -85q159 0 202 135q13 44 13 98v580h57v-578q-3 -207 -151 -266q-51 -20 -121 -20q-201 0 -291 159v-135h-57v284q0 70 11 117t38 74 q28 28 50 47q86 76 108 136q10 26 10 58v30q-41 -58 -129 -58q-135 0 -171 152z" />
<glyph unicode="&#xe07;" horiz-adv-x="618" d="M52 462h60l110 -311q40 -113 125 -113t96 88q3 26 3 50v612h-134v52h192v-670q0 -152 -99 -177q-29 -7 -61 -7q-128 0 -176 146z" />
<glyph unicode="&#xe08;" horiz-adv-x="751" d="M68 660q46 139 194 183q51 15 121 15q139 0 211 -77t72 -197t-118 -360q-52 -108 -112 -224h-56l-160 408h-107v52h146l152 -388q139 278 169 373t28 140q-2 154 -129 205q-44 16 -102 16q-190 0 -247 -146h-62z" />
<glyph unicode="&#xe09;" horiz-adv-x="874" d="M106 662q10 40 34 75q82 119 276 119t278 -107q48 -66 57 -131t9 -110v-508h-58v132q-85 -156 -290 -156q-148 0 -223 81q-74 81 -74 221v182h57v-182q0 -181 138 -234q44 -18 109 -18q129 -1 206 92t77 234v174q0 278 -278 278q-171 0 -232 -88q-18 -26 -24 -54h-62z " />
<glyph unicode="&#xe0a;" horiz-adv-x="741" d="M66 766v58q51 30 108 30q143 0 143 -134q0 -59 -67 -147q-67 -87 -79 -130q-13 -43 -13 -75v-116q0 -110 63 -163t154 -53q161 0 200 143q9 33 9 77v86q0 96 -18 128t-46 50q-27 18 -69 19q-41 1 -74 1h-33v52h33q128 8 184 65q55 56 43 183h58q0 -22 -1 -46 q0 -161 -129 -218q75 -27 96 -111q13 -52 13 -81v-130q2 -131 -71 -201q-72 -69 -195 -69q-195 0 -255 154q-20 50 -20 116v114q3 119 124 260q38 44 38 92q0 84 -88 84q-48 0 -108 -38z" />
<glyph unicode="&#xe0b;" horiz-adv-x="741" d="M18 840h53q23 -96 107 -96q65 0 96 56q10 18 18 40h60v-126q0 -86 -64 -164q-18 -22 -61 -70q-69 -77 -69 -162v-66q0 -110 63 -163t154 -53q162 0 200 143q9 33 9 77v86q0 96 -18 128t-46 50q-27 18 -69 19q-41 1 -74 1h-33v52h33q101 0 156 42t63 97t8 109h58 q0 -22 -1 -46q0 -165 -129 -218q74 -26 96 -111q13 -51 13 -81v-130q2 -131 -71 -201q-72 -69 -195 -69q-195 0 -255 154q-20 50 -20 116v64q0 106 86 199t98 130q13 37 13 63v34q-44 -50 -127 -50q-84 0 -132 89q-13 27 -20 57z" />
<glyph unicode="&#xe0c;" horiz-adv-x="1329" d="M52 602q52 170 209 230q59 22 131 22q293 0 323 -260q5 -43 5 -88v-166q0 -112 65 -209t170 -97t154 58t49 186v562h56v-564q0 -148 -61 -221t-188 -73t-202 87q-25 27 -43 61v-130h-56v506q0 184 -99 250q-66 44 -148 44q-227 0 -299 -182q64 -42 64 -172v-394h98v-52 h-155v446q0 62 -14 95t-59 61z" />
<glyph unicode="&#xe0d;" horiz-adv-x="1329" d="M52 602q52 170 209 230q59 22 131 22q293 0 323 -260q5 -43 5 -88v-166q0 -236 196 -236q75 0 136 48q106 90 106 268v420h56v-694q0 -150 -78 -244q-85 -96 -233 -96t-222 107q-25 36 -38 87h58q39 -142 211 -142q169 0 226 150q24 64 24 138v62q-70 -156 -248 -156 q-250 0 -250 286v168q0 184 -99 250q-66 44 -148 44q-227 0 -299 -182q64 -42 64 -172v-394h98v-52h-155v446q0 62 -14 95t-59 61z" />
<glyph unicode="&#xe0e;" horiz-adv-x="878" d="M43 0v50h99v396q0 89 -37 128q-15 16 -37 33q61 181 236 231q56 16 120 16q340 0 340 -348v-778h-48q-112 96 -236 96t-254 -118v64q124 103 256 103t225 -73v714q0 223 -184 274q-43 12 -115 12t-118 -24q-99 -50 -138 -122q-10 -20 -16 -34q51 -43 60 -118q2 -26 2 -56 v-446h-155z" />
<glyph unicode="&#xe0f;" horiz-adv-x="878" d="M43 0v50h99v396q0 88 -37 127q-15 15 -37 33q61 182 236 232q56 16 120 16q340 0 340 -348v-778h-60q-44 100 -136 100q-60 0 -110 -59q-15 -19 -23 -41h-45q-12 46 -45 73t-67 27q-112 0 -130 -100h-56q15 99 115 140q29 12 61 12q102 0 147 -82q59 82 147 82t145 -63 v697q0 123 -57 194q-68 92 -226 92q-92 0 -136 -24q-117 -62 -152 -156q51 -43 60 -118q2 -26 2 -56v-446h-155z" />
<glyph unicode="&#xe10;" horiz-adv-x="758" d="M83 660q43 139 194 183q51 15 114 15t112 -16q79 5 119 64q10 16 14 34h62q-8 -59 -68 -105q-22 -17 -55 -28q105 -68 105 -210t-144 -427q-42 -84 -86 -170h-56l-160 408h-107v52h146l153 -388q198 396 198 508q0 159 -131 210q-44 16 -102 16q-190 0 -247 -146h-61z M98 -266q4 61 34 95q53 60 122 60t116 -68q43 66 112 67t106 -36v68h53v-186h-51q-6 70 -61 94q-17 8 -37 8t-38 -8q-54 -25 -60 -94h-46q-4 36 -33 69q-30 33 -59 33q-44 0 -74 -30t-31 -72h-53z" />
<glyph unicode="&#xe11;" horiz-adv-x="862" d="M58 840h54q27 -96 108 -96t112 96h60v-157q186 169 261 169q52 0 73 -36t21 -112v-704h-57v704q0 94 -36 94t-129 -77t-174 -163q-106 -114 -134 -164q-29 -50 -29 -146v-248h-57v244q0 91 19 137q27 66 95 142t81 105q12 29 12 56v60q-46 -52 -120 -52q-121 0 -160 148z " />
<glyph unicode="&#xe12;" horiz-adv-x="1380" d="M115 0v522q-2 123 28 184q31 62 69 96t102 49l130 -127l124 127q124 -28 169 -125q27 -60 31 -114t4 -90v-188q0 -117 63 -208q63 -92 181 -92q192 0 192 244v562h58v-564q0 -294 -250 -294q-118 0 -198 80q-27 28 -46 64v-126h-57v538q5 206 -129 254l-142 -142 l-146 142q-126 -41 -126 -254v-452l274 318h-118v52h196v-42l-358 -414h-51z" />
<glyph unicode="&#xe13;" horiz-adv-x="1329" d="M52 604q50 168 209 228q59 22 131 22q134 0 209 -50q119 -79 119 -296v-224q0 -250 191 -250q117 0 186 96q61 93 61 206v504h56v-840h-56v128q-58 -107 -173 -137q-35 -9 -71 -9q-250 0 -250 300v226q0 184 -99 250q-66 44 -148 44q-227 0 -299 -182q64 -42 64 -172 v-396h98v-52h-155v448q0 62 -14 95t-59 61z" />
<glyph unicode="&#xe14;" horiz-adv-x="889" d="M115 0v502q2 108 23 161q37 97 109 145t197 48q330 0 330 -354v-502h-57v502q0 131 -52 208q-46 61 -105 77q-60 17 -116 17q-272 0 -272 -302v-416l274 318h-122v52h200v-41l-358 -415h-51z" />
<glyph unicode="&#xe15;" horiz-adv-x="903" d="M115 0v522q0 128 32 189q31 61 71 93t104 47l130 -127l124 127q128 -39 170 -121t42 -208v-522h-56v524q0 103 -20 151q-20 47 -48 73t-72 44l-140 -142l-146 143q-134 -46 -134 -271v-436l274 318h-122v52h200v-41l-358 -415h-51z" />
<glyph unicode="&#xe16;" horiz-adv-x="862" d="M52 607q61 180 235 231q56 16 122 16q235 0 310 -178q26 -67 28 -170v-506h-57v514q0 123 -57 194q-69 92 -227 92t-245 -109q-31 -37 -41 -71q62 -52 62 -174v-394h98v-52h-156v446q0 87 -36 128q-14 16 -36 33z" />
<glyph unicode="&#xe17;" horiz-adv-x="870" d="M115 0v840h57v-161q55 96 139 136q84 41 166 41q279 0 279 -296v-560h-58v560q0 244 -216 244q-135 0 -224 -99q-86 -95 -86 -231v-474h-57z" />
<glyph unicode="&#xe18;" horiz-adv-x="792" d="M102 219v143h58v-143q0 -129 129 -174q102 -35 209 -4t134 109q12 30 12 70q0 83 -54 129q-54 47 -222 100q-167 53 -223 114q-43 45 -43 92q0 46 12 73q57 128 275 128q173 0 247 -105q26 -37 36 -91h-59q-36 144 -238 144q-87 0 -133 -26q-82 -46 -82 -117 q0 -70 83 -110q44 -23 86 -36q43 -13 72 -24t65 -23t70 -26q164 -68 164 -212q0 -77 -24 -123q-68 -131 -275 -131t-275 131q-24 46 -24 112z" />
<glyph unicode="&#xe19;" horiz-adv-x="870" d="M115 282v558h57v-558q0 -246 216 -246q134 0 222 98t88 234v472h58v-840h-58v163q-102 -179 -313 -179q-270 0 -270 298z" />
<glyph unicode="&#xe1a;" horiz-adv-x="872" d="M115 338v502h57v-504q0 -298 264 -298t264 298v504h58v-502q0 -281 -206 -339q-50 -13 -116 -13q-128 0 -200 49t-96 132q-27 76 -25 171z" />
<glyph unicode="&#xe1b;" horiz-adv-x="872" d="M115 338v502h57v-504q0 -298 264 -298t264 298v872h58v-870q0 -281 -206 -339q-50 -13 -116 -13q-128 0 -200 49t-96 132q-27 76 -25 171z" />
<glyph unicode="&#xe1c;" horiz-adv-x="930" d="M115 240v600h171v-52h-114v-548q0 -202 123 -202q67 0 104 58t37 160v127h58v-127q0 -156 82 -203q28 -15 65 -15q117 0 117 202v600h57v-600q0 -254 -172 -254q-125 0 -178 118q-40 -104 -129 -116q-24 -2 -43 -2q-178 0 -178 254z" />
<glyph unicode="&#xe1d;" horiz-adv-x="930" d="M115 240v600h171v-52h-114v-548q0 -202 123 -202q67 0 104 58t37 160v127h58v-127q0 -156 82 -203q28 -15 65 -15q117 0 117 202v968h57v-968q0 -254 -172 -254q-125 0 -178 118q-40 -104 -129 -116q-24 -2 -43 -2q-178 0 -178 254z" />
<glyph unicode="&#xe1e;" horiz-adv-x="1048" d="M59 840h59l176 -716l204 716h46l205 -718l179 718h62l-220 -840h-40l-208 730l-210 -730h-39z" />
<glyph unicode="&#xe1f;" horiz-adv-x="1048" d="M59 840h59l176 -716l204 716h46l205 -718l272 1086h61l-312 -1208h-40l-208 730l-210 -730h-39z" />
<glyph unicode="&#xe20;" horiz-adv-x="878" d="M43 0v50h99v396q0 89 -37 128q-15 16 -37 33q61 181 236 231q56 16 120 16q340 0 340 -348v-506h-57v514q0 123 -57 194q-66 92 -226 92q-92 0 -136 -24q-117 -62 -152 -156q51 -43 60 -118q2 -26 2 -56v-446h-155z" />
<glyph unicode="&#xe21;" horiz-adv-x="870" d="M115 0v840h57v-472q0 -133 86 -233q87 -99 219 -99q221 0 221 254v550h58v-550q0 -221 -147 -284q-53 -22 -103 -22t-76 3t-53 11q-132 39 -205 167v-165h-57z" />
<glyph unicode="&#xe22;" horiz-adv-x="837" d="M88 235q0 169 134 227q-95 41 -125 136q-9 28 -9 59q0 72 53 127q53 56 148 56h87v-52h-87q-69 -4 -98 -34q-48 -50 -47 -105t53 -103q52 -49 131 -59h48v-51h-48q-128 -7 -167 -108q-14 -34 -14 -92t30 -97q80 -105 237 -105q254 0 254 258v548h54v-548 q0 -310 -308 -310q-141 0 -234 70q-92 70 -92 183z" />
<glyph unicode="&#xe23;" horiz-adv-x="706" d="M64 198h57q16 -82 79 -126t156 -44q167 0 211 116q11 28 11 65q0 90 -104 143q-66 33 -165 75t-140 74q-81 61 -81 154t73 147t173 54q224 0 270 -198h-56q-36 146 -204 146q-124 0 -180 -81q-20 -29 -19 -77t33 -82q33 -35 74 -54q42 -20 68 -30t74 -30 q127 -54 184 -104q56 -49 56 -124q0 -246 -282 -246q-175 0 -253 123q-27 41 -35 99z" />
<glyph unicode="&#xe24;" horiz-adv-x="862" d="M52 607q61 180 235 231q56 16 122 16q235 0 310 -178q26 -67 28 -170v-778h-57v786q0 123 -57 194q-69 92 -227 92t-245 -109q-31 -37 -41 -71q62 -52 62 -174v-394h98v-52h-156v446q0 87 -36 128q-14 16 -36 33z" />
<glyph unicode="&#xe25;" horiz-adv-x="833" d="M72 200q0 142 139 200q67 28 146 41q181 30 243 73t62 112q0 125 -130 165q-38 13 -121 13t-132 -27t-75 -59t-36 -82h-57q43 220 325 220q160 0 239 -90q43 -56 43 -140v-626h-56v496q-74 -74 -314 -112q-20 -4 -44 -8q-175 -33 -175 -182q0 -129 146 -149q43 -5 93 -5 h31v-49q-13 -2 -23 -2l-70 -1q-94 0 -164 51t-70 161z" />
<glyph unicode="&#xe26;" horiz-adv-x="878" d="M43 0v50h99v396q0 89 -37 128q-15 16 -37 33q61 181 236 231q56 16 120 16q340 0 340 -348v-778h-57v786q0 123 -57 194q-66 92 -226 92q-92 0 -136 -24q-117 -62 -152 -156q51 -43 60 -118q2 -26 2 -56v-446h-155z" />
<glyph unicode="&#xe27;" horiz-adv-x="731" d="M66 230h59q20 -100 84 -148q63 -48 127 -48t110 23q154 77 154 367t-152 362q-46 20 -90 20q-128 0 -199 -110q-23 -37 -34 -86h-59q32 171 181 231q47 19 114 19q141 0 219 -114q77 -114 77 -322q0 -315 -172 -410q-57 -32 -125 -32q-123 0 -199 67q-75 67 -95 181z" />
<glyph unicode="&#xe28;" horiz-adv-x="882" d="M115 0v504q0 221 127 303q80 51 182 51q103 0 163 -24q102 7 139 100h60q-18 -64 -77 -110q-23 -16 -55 -26q114 -89 114 -294v-504h-57v504q1 302 -269 302t-270 -302v-205q61 130 210 162q42 9 80 9v-52q-136 0 -213 -98t-77 -224v-96h-57z" />
<glyph unicode="&#xe29;" horiz-adv-x="878" d="M115 338v502h57v-504q0 -298 266 -298t267 298v108h-256v150h55v-98h201v344h57v-344h82v-52h-82v-106q0 -352 -323.5 -352t-323.5 352z" />
<glyph unicode="&#xe2a;" horiz-adv-x="833" d="M72 202q0 112 86 168q53 34 100 46q108 27 145 33q149 25 204 67t55 110q0 125 -130 165q-38 13 -93 13q-238 0 -271 -168h-57q43 220 325 220q80 0 144 -24q82 8 127 67q11 17 17 35h60q-40 -107 -142 -138q76 -63 76 -170v-626h-56v494q-67 -67 -217 -92 q-149 -24 -181 -36q-135 -49 -135 -162q0 -139 146 -159q43 -5 93 -5h31v-49q-13 -2 -23 -2l-70 -1q-94 0 -164 51t-70 163z" />
<glyph unicode="&#xe2b;" horiz-adv-x="846" d="M115 0v840h57v-412l508 412h87l-203 -165q137 -58 161 -211q6 -44 6 -90v-374h-57v374q0 158 -82 224q-30 26 -76 40l-344 -282v-356h-57z" />
<glyph unicode="&#xe2c;" horiz-adv-x="1030" d="M53 840h59l186 -732l196 612h50l197 -613l126 475q13 62 13 92q0 118 -122 118v48q78 0 133 44t70 110h57q-22 -91 -94 -154q-24 -20 -50 -30q62 -38 62 -140q0 -46 -10 -84l-16 -60q-6 -22 -14 -51t-17 -65t-40 -147t-71 -263h-50l-198 625l-199 -625h-50z" />
<glyph unicode="&#xe2d;" horiz-adv-x="831" d="M78 454h292v-52h-235q6 -270 165 -348q52 -26 115 -26q127 -1 203 104q76 104 76 290q0 290 -163 364q-53 24 -129 24t-128 -34t-78 -64q-26 -32 -42 -70h-60q92 220 335 220q77 0 141 -34q182 -94 182 -406q0 -187 -83 -316q-83 -128 -256 -128q-174 0 -256 131 q-81 131 -79 345z" />
<glyph unicode="&#xe2e;" horiz-adv-x="833" d="M78 454h292v-52h-235q6 -269 165 -347q52 -25 115 -25q197 0 259 222q20 74 20 172q0 284 -165 363q-51 24 -105 24q-146 0 -228 -98q-26 -31 -42 -70h-60q91 219 328 219q70 0 138 -30q80 6 124 64q12 17 16 36h58q-9 -65 -79 -110q-25 -17 -59 -26q132 -103 132 -372 t-144 -383q-80 -63 -182 -63q-182 0 -267 129t-81 347z" />
<glyph unicode="&#xe2f;" horiz-adv-x="837" d="M78 618q0 153 129 203q49 19 111 19h77v-52h-77q-83 0 -118 -28q-65 -52 -65 -134q0 -147 133 -192q47 -16 109 -16q120 0 205 64q84 64 84 178v180h56v-840h-56v498q-88 -132 -296 -132t-272 155q-20 47 -20 97z" />
<glyph unicode="&#xe30;" horiz-adv-x="454" d="M100 154v136h54v-86h212v-50h-266zM100 594v139h54v-86h212v-53h-266z" />
<glyph unicode="&#xe31;" d="M-485 1004v157h57v-104h424v-53h-481z" />
<glyph unicode="&#xe32;" horiz-adv-x="696" d="M57 656q10 48 36 85q79 109 235 109q110 0 182 -66t72 -196v-588h-58v592q0 100 -55 153t-161 53t-166 -79q-20 -27 -27 -63h-58z" />
<glyph unicode="&#xe33;" horiz-adv-x="696" d="M-260 1103q0 93 68 119q20 8 45 8t47 -8q69 -26 69 -118q0 -36 -34 -69t-83 -33q-50 0 -81 32t-31 69zM-211 1108q-1 -22 17 -40t40 -18q74 0 74 66q0 45 -40 61q-12 5 -26 5t-26 -5q-39 -16 -39 -69zM57 656q10 48 36 85q79 109 235 109q110 0 182 -66t72 -196v-588h-58 v592q0 100 -55 153t-161 53t-166 -79q-20 -27 -27 -63h-58z" />
<glyph unicode="&#xe34;" d="M-754 1004l26 53h613v-53h-639z" />
<glyph unicode="&#xe35;" d="M-754 1004l26 53h556v129h57v-182h-639z" />
<glyph unicode="&#xe36;" d="M-754 1004l26 53h419q-21 31 -21 75t35 79t84 36q48 0 84 -36q35 -35 35 -85t-35 -86t-85 -36h-542zM-278 1116q0 -22 18 -40t40 -18q55 0 68 40q6 12 6 32t-19 40q-18 20 -47 20q-66 0 -66 -74z" />
<glyph unicode="&#xe37;" d="M-754 1004l26 53h382v129h57v-129h117v129h57v-182h-639z" />
<glyph unicode="&#xe38;" d="M-246 -130h131v-232h-57v178h-74v54z" />
<glyph unicode="&#xe39;" d="M-563 -130h133v-89q0 -113 131 -113q127 0 127 117v85h57v-85q3 -116 -98 -154q-35 -13 -86 -13q-182 0 -186 163v37h-78v52z" />
<glyph unicode="&#xe3a;" d="M-220 -180q0 41 39 58q13 5 25 5q38 0 56 -39q4 -12 4 -24q0 -41 -37 -57q-11 -5 -23 -5t-25 5q-39 16 -39 57z" />
<glyph unicode="&#xe3e;" />
<glyph unicode="&#xe3f;" horiz-adv-x="934" d="M121 0v999h299v67h61v-67h37q207 0 280 -127q25 -46 25 -96t-6 -84q-20 -114 -145 -168q188 -53 188 -247q0 -277 -342 -277h-37v-74h-61v74h-299zM184 58h236v436h-236v-436zM184 550h236v394h-236v-394zM481 58h37q281 0 281 221q-4 215 -281 215h-37v-436zM481 550h37 q177 0 231 122q15 36 15 82q0 95 -67 142q-67 48 -181 48h-35v-394z" />
<glyph unicode="&#xe40;" horiz-adv-x="340" d="M144 0v840h52v-840h-52z" />
<glyph unicode="&#xe41;" horiz-adv-x="538" d="M115 0v840h53v-840h-53zM370 0v840h54v-840h-54z" />
<glyph unicode="&#xe42;" horiz-adv-x="379" d="M38 1148l15 34h338l21 -49h-262q47 -44 62 -133q4 -24 3 -42v-905h92v-53h-149v954q0 150 -120 194z" />
<glyph unicode="&#xe43;" horiz-adv-x="379" d="M-18 1051q16 87 70 125q47 36 102 36q54 0 85 -7q103 -23 103 -125q0 -56 -57 -130t-63 -110q-7 -36 -7 -68v-719h92v-53h-149v762q0 114 66 198q36 46 50 70t13 50q0 84 -116 84t-137 -113h-52z" />
<glyph unicode="&#xe44;" horiz-adv-x="379" d="M-40 1133l18 49h342l14 -34q-115 -44 -119 -194v-901h92v-53h-149v958q0 68 24 113t41 62h-263z" />
<glyph unicode="&#xe45;" horiz-adv-x="696" d="M57 656q10 48 36 85q79 109 235 109q110 0 182 -66t72 -196v-860h-58v864q0 100 -55 153t-161 53t-166 -79q-20 -27 -27 -63h-58z" />
<glyph unicode="&#xe46;" horiz-adv-x="782" d="M81 667q34 148 185 184l118 -112l110 113q146 -20 174 -164q10 -53 10 -135v-825h-57v844q-1 20 -1 42t-3 46q-15 120 -104 136l-130 -130l-133 128q-121 -47 -121 -214q1 -61 31 -92q54 -56 120 -56h44v-50h-44q-86 0 -145 53q-88 84 -54 232z" />
<glyph unicode="&#xe47;" d="M-692 1138q2 86 62 123q59 37 142 37h434v-50h-434q-111 0 -139 -60q-9 -20 -9 -40q0 -98 114 -101q52 0 92 53q12 16 18 34h44q13 -54 72 -80q18 -8 38 -8t38 6q55 21 58 82h52q-6 -94 -85 -124q-26 -10 -58 -10q-93 0 -137 74q-46 -74 -144 -74q-79 4 -118 47 q-41 41 -40 91z" />
<glyph unicode="&#xe48;" d="M-170 1319v180h55v-180h-55z" />
<glyph unicode="&#xe49;" d="M-414 1442v48h127v-120h35q152 0 208 79q16 21 22 41h54q-51 -167 -286 -171h-86v123h-74z" />
<glyph unicode="&#xe4a;" d="M-461 1319q6 97 72 135q19 10 39 10q60 0 91 -57q32 57 89 57q81 0 102 -98q44 4 83 45t41 79h50q-10 -72 -63 -121q-54 -48 -119 -50h-34q-11 95 -62 95t-62 -95h-48q-7 63 -41 87q-11 8 -23 8q-51 0 -62 -95h-53z" />
<glyph unicode="&#xe4b;" d="M-294 1426v50h124v104h55v-104h129v-50h-129v-107h-55v107h-124z" />
<glyph unicode="&#xe4c;" d="M-236 1217q39 147 236 168v-51q-152 -18 -177 -117h-59z" />
<glyph unicode="&#xe4d;" d="M-260 1103q0 93 68 119q20 8 45 8t47 -8q69 -26 69 -118q0 -36 -34 -69t-83 -33q-50 0 -81 32t-31 69zM-211 1108q-1 -22 17 -40t40 -18q74 0 74 66q0 45 -40 61q-12 5 -26 5t-26 -5q-39 -16 -39 -69z" />
<glyph unicode="&#xe4e;" d="M-296 1006q10 71 28 99q35 54 102 69q8 50 42 77q60 47 126 47v-54q-76 0 -108 -70q-10 -22 -12 -47q-61 -4 -84 -32t-32 -89h-62z" />
<glyph unicode="&#xe4f;" horiz-adv-x="1007" d="M86 420q0 58 16 112q49 164 191 248q103 58 211 58t205 -56t155 -151q58 -103 58 -210t-58 -212q-81 -141 -249 -191q-53 -16 -111 -16q-108 0 -211 58q-140 78 -191 249q-16 53 -16 111zM143 420q0 -150 105 -256q105 -105 256 -105q97 0 182 49q120 66 166 216 q12 46 12 96q0 150 -105 255t-254 105t-255 -105q-107 -105 -107 -255zM279 419q0 94 65 160t159 66t160 -65t66 -159t-65 -160t-159 -66t-160 65t-66 159zM336 420q0 -68 50 -118t116 -50t120 50q50 52 50 117t-50 119q-87 79 -183 36q-61 -27 -90 -90q-13 -30 -13 -64z " />
<glyph unicode="&#xe50;" horiz-adv-x="887" d="M84 352q0 176 90 280t271 104q182 0 270 -102q89 -102 89 -280t-100 -272q-100 -93 -260 -93t-254 90q-106 98 -106 273zM139 372q0 -162 84 -247t220 -85q137 0 222 86t85 232q0 229 -160 300q-62 29 -143 29q-127 0 -218 -76q-90 -76 -90 -239z" />
<glyph unicode="&#xe51;" horiz-adv-x="915" d="M88 60l35 44q114 -70 289 -70q249 0 330 206q26 66 26 149q0 154 -82 229q-82 74 -230 74q-200 0 -264 -119q-20 -37 -20 -77q0 -119 127 -153q45 -12 107 -11v-54q-289 0 -289 220q0 118 96 181t243 63q275 0 343 -190q24 -66 24 -158q0 -289 -233 -380 q-76 -30 -178 -30q-200 0 -324 76z" />
<glyph unicode="&#xe52;" horiz-adv-x="1026" d="M45 806l5 52q59 -18 80 -52q38 -61 38 -140v-356q0 -190 210 -250q70 -20 162 -20q170 0 252 79t82 189v232q0 106 -138 142l-114 -108l-118 107q-81 -27 -114 -101q-12 -27 -12 -64v-64q0 -164 132 -164v-54q-186 0 -186 220v60q0 128 114 194q36 20 81 30l103 -92 l98 92q146 -19 196 -123q16 -34 16 -75v-230q0 -147 -102 -235q-102 -87 -244 -87h-76q-185 0 -292 89t-107 233v356q0 112 -66 140z" />
<glyph unicode="&#xe53;" horiz-adv-x="936" d="M96 326v82q0 242 138 302q46 20 104 28l121 -118l129 118q117 -11 176 -80t59 -180v-478h-57v478q0 89 -44 140t-118 60l-145 -134l-137 134q-168 -24 -168 -268v-82q0 -177 46 -231q46 -53 107 -53h59v-52h-59q-89 0 -150 66t-61 268z" />
<glyph unicode="&#xe54;" horiz-adv-x="927" d="M96 312v122q0 235 200 281q64 15 148 15h166q147 0 164 126h56q-10 -83 -45 -116q-68 -62 -175 -62h-166q-229 0 -274 -133q-16 -47 -16 -113v-120q0 -179 142 -241q46 -19 106 -19h135q-103 70 -103 180q0 79 70 124q30 18 78 28v-53q-101 -27 -95 -99q0 -73 70 -132 q30 -25 61 -37q32 -11 44 -11h169v-52h-429q-112 0 -187 51q-119 88 -119 261z" />
<glyph unicode="&#xe55;" horiz-adv-x="927" d="M96 312v122q0 212 160 269q52 19 120 24q-22 31 -22 60q0 31 9 51q31 70 108 69q49 1 83 -33t34 -74t-20 -70h42q111 0 148 74q12 22 16 52h56q-21 -177 -220 -177h-166q-227 3 -274 -133q-16 -48 -16 -114v-120q0 -178 142 -240q46 -20 106 -20h135q-103 70 -103 180 q0 78 70 125q30 18 78 27v-52q-52 -14 -74 -42q-23 -28 -22 -57q3 -75 65 -128q63 -53 111 -53h169v-52h-429q-163 0 -244 106q-62 84 -62 206zM408 786q0 -20 18 -38t38 -18q50 0 66 38q5 12 5 24t-5 25q-16 38 -59 38t-58 -38q-5 -11 -5 -31z" />
<glyph unicode="&#xe56;" horiz-adv-x="925" d="M36 840l46 25l118 -208q148 83 302 83q338 0 338 -346v-56q0 -200 -157 -297q-85 -51 -181 -51q-158 0 -243 64t-85 164q0 139 127 179q40 13 92 13v-54q-164 -4 -164 -138q-2 -72 67 -124t189 -52t208 78q89 78 89 212v58q0 229 -160 281q-52 17 -120 17 q-170 -4 -318 -104z" />
<glyph unicode="&#xe57;" horiz-adv-x="1073" d="M96 294v96q0 244 137 314q45 23 103 30l96 -111l106 111q186 -28 215 -212q11 -58 11 -128v-80q0 -184 -36 -256q88 28 142 104t54 204v280q0 137 64 182q20 14 46 22l18 -48q-38 -15 -50 -37q-24 -43 -24 -119v-280q0 -214 -151 -318q-55 -37 -137 -53l-33 29 q54 108 50 290v80q0 191 -83 250q-28 21 -66 33q-30 -32 -63 -67t-63 -67l-116 135q-162 -49 -162 -288v-94q0 -256 188 -256v-48q-246 -9 -246 302z" />
<glyph unicode="&#xe58;" horiz-adv-x="905" d="M98 254v182q0 294 320 294h210q113 0 142 73q10 23 14 53h54q-10 -84 -42 -116q-62 -62 -168 -62h-210q-206 0 -248 -137q-14 -45 -14 -105v-182q0 -82 44 -144q41 -53 108 -64q97 89 144 133l154 -133q144 10 144 198q0 150 -123 150v50q66 0 101 -24q49 -35 63 -78 q13 -42 13 -98q0 -240 -216 -252l-135 116l-125 -116q-113 10 -171 83q-59 73 -59 179z" />
<glyph unicode="&#xe59;" horiz-adv-x="915" d="M98 304v90q0 344 222 344q118 0 172 -63q18 -21 36 -47l96 88q25 22 46 22h61q63 0 80 24t24 90h55q-4 -22 -6 -42q-12 -98 -90 -116q-26 -6 -63 -6h-47q-14 0 -132 -109q64 -141 130 -289t130 -290h-63l-240 542q-37 78 -74 112q-38 34 -91 34q-52 0 -85 -12 q-103 -37 -103 -282v-90q0 -124 42 -188t152 -64v-56q-224 0 -248 229q-4 38 -4 79z" />
<glyph unicode="&#xe5a;" horiz-adv-x="1050" d="M70 618q0 153 129 203q49 19 110 19h78v-52h-78q-82 0 -117 -28q-66 -53 -66 -139t60 -144q60 -59 181 -59q122 0 207 65q84 65 84 177v180h56v-840h-56v496q-87 -130 -296 -130t-273 155q-19 47 -19 97zM891 0v840h57v-840h-57z" />
<glyph unicode="&#xe5b;" horiz-adv-x="1775" d="M70 425q0 160 89 275t232 115t210 -68t81 -181h-56q-8 88 -67 143t-136 55q-207 0 -273 -200q-21 -64 -21 -126q0 -210 161 -307q81 -47 166 -47q392 0 406 531l48 24q36 -45 78 -99t85 -122q29 48 65 91q34 43 70 89l121 -166q42 54 81 108h256l30 -56h-260 q-43 -52 -104 -146q-30 42 -63 85t-63 85q-84 -106 -132 -199q-20 31 -55 87q-35 55 -101 143q-16 -258 -136 -386q-121 -128 -309 -128t-296 120q-107 120 -107 280z" />
<glyph unicode="&#x2000;" horiz-adv-x="790" />
<glyph unicode="&#x2001;" horiz-adv-x="1580" />
<glyph unicode="&#x2002;" horiz-adv-x="790" />
<glyph unicode="&#x2003;" horiz-adv-x="1580" />
<glyph unicode="&#x2004;" horiz-adv-x="526" />
<glyph unicode="&#x2005;" horiz-adv-x="395" />
<glyph unicode="&#x2006;" horiz-adv-x="263" />
<glyph unicode="&#x2007;" horiz-adv-x="263" />
<glyph unicode="&#x2008;" horiz-adv-x="197" />
<glyph unicode="&#x2009;" horiz-adv-x="316" />
<glyph unicode="&#x200a;" horiz-adv-x="87" />
<glyph unicode="&#x200b;" />
<glyph unicode="&#x2010;" horiz-adv-x="518" d="M72 326v56h374v-56h-374z" />
<glyph unicode="&#x2011;" horiz-adv-x="518" d="M72 326v56h374v-56h-374z" />
<glyph unicode="&#x2012;" horiz-adv-x="518" d="M72 326v56h374v-56h-374z" />
<glyph unicode="&#x2013;" horiz-adv-x="698" d="M0 356v62h698v-62h-698z" />
<glyph unicode="&#x2014;" horiz-adv-x="1399" d="M0 356v62h1399v-62h-1399z" />
<glyph unicode="&#x2018;" horiz-adv-x="389" d="M142 692v96q0 99 60 166q20 22 44 34v-61q-33 -25 -46 -91q-4 -20 -4 -42h50v-102h-104z" />
<glyph unicode="&#x2019;" horiz-adv-x="389" d="M142 686v60q48 36 48 133h-48v102h104v-97q0 -98 -61 -165q-19 -20 -43 -33z" />
<glyph unicode="&#x201c;" horiz-adv-x="518" d="M106 692v96q0 99 60 166q20 22 44 34v-61q-33 -25 -46 -91q-4 -20 -4 -42h50v-102h-104zM310 692v96q0 102 61 166q19 22 43 34v-61q-30 -23 -44 -91q-4 -20 -4 -42h48v-102h-104z" />
<glyph unicode="&#x201d;" horiz-adv-x="518" d="M104 686v60q48 36 48 133h-48v102h104v-97q0 -98 -61 -165q-19 -20 -43 -33zM308 686v60q32 24 46 92q4 20 4 41h-50v102h104v-97q0 -95 -60 -165q-20 -20 -44 -33z" />
<glyph unicode="&#x2022;" horiz-adv-x="483" d="M52 412q0 80 56 134q56 56 134 56t134 -56t56 -136t-56 -134t-136 -54q-81 0 -134 55q-54 55 -54 135z" />
<glyph unicode="&#x202f;" horiz-adv-x="316" />
<glyph unicode="&#x205f;" horiz-adv-x="395" />
<glyph unicode="&#x20ac;" horiz-adv-x="1034" d="M20 392v53h106q-2 30 -2 59.5t4 61.5h-108v54h115q39 246 177.5 324t268.5 78t237.5 -81.5t133.5 -222.5h-60q-34 119 -119 183.5t-213 64.5q-70 0 -195.5 -54t-166.5 -292h390v-54h-397q-4 -28 -4 -58t2 -63h399v-53h-392q26 -151 123 -254.5t246 -103.5q148 0 234 89 t107 240h62q-36 -282 -174 -333.5t-228 -51.5q-181 0 -295 116.5t-139 297.5h-112z" />
<glyph unicode="&#x2122;" horiz-adv-x="1384" d="M125 946v54h427v-54h-186v-499h-52v499h-189zM676 447v553h62l230 -472l228 472h64v-553h-54v455l-220 -455h-34l-223 455v-455h-53z" />
<glyph unicode="&#x25cc;" horiz-adv-x="934" d="M209 406l92 46q-8 -55 0 -94zM276 226l42 96q25 -41 65 -68zM295 586l94 -33q-45 -21 -69 -63zM418 565l49 97l45 -90q-47 9 -94 -7zM422 236q22 -6 42 -6t46 8l-43 -92zM547 555l111 31l-44 -98q-16 29 -67 67zM549 252q33 23 65 64l27 -93zM631 360q16 44 6 90l88 -46z " />
<glyph unicode="&#x25fc;" horiz-adv-x="730" d="M0 0v730h730v-730h-730z" />
<glyph unicode="&#xf700;" horiz-adv-x="758" d="M83 660q43 139 194 183q51 15 114 15t112 -16q79 5 119 64q10 16 14 34h62q-8 -59 -68 -105q-22 -17 -55 -28q105 -68 105 -210t-144 -427q-42 -84 -86 -170h-56l-160 408h-107v52h146l153 -388q198 396 198 508q0 159 -131 210q-44 16 -102 16q-190 0 -247 -146h-61z " />
<glyph unicode="&#xf701;" d="M-868 1004l26 53h557v-53h-583z" />
<glyph unicode="&#xf702;" d="M-868 1004l26 53h500v129h57v-182h-583z" />
<glyph unicode="&#xf703;" d="M-868 1004l26 53h364q-22 31 -22 62q0 84 73 117q22 10 47 10t47 -10q73 -33 73 -112q0 -48 -35 -84t-86 -36h-487zM-446 1116q0 -22 18 -40t40 -18t33 5q12 5 21 14t14 21t5 26q0 28 -19 47t-55 19t-52 -40q-5 -12 -5 -34z" />
<glyph unicode="&#xf704;" d="M-868 1004l26 53h326v129h57v-129h117v129h57v-182h-583z" />
<glyph unicode="&#xf705;" d="M-422 1006v231h57v-231h-57z" />
<glyph unicode="&#xf706;" d="M-716 1128v50h126v-122h35q97 0 165 41q48 33 65 81h53q-54 -172 -285 -172h-86v122h-73z" />
<glyph unicode="&#xf707;" d="M-803 1006q6 99 72 134q19 10 39 10q60 0 91 -56q32 56 89 56q80 0 102 -97q73 10 112 84q11 21 12 41h50q-15 -110 -121 -160q-30 -12 -61 -12h-34q-10 94 -62 94t-62 -94h-48q-7 64 -41 86q-11 8 -24 8q-44 0 -57 -58q-4 -17 -4 -36h-53z" />
<glyph unicode="&#xf708;" d="M-600 1112v51h125v105h55v-105h129v-51h-129v-106h-55v106h-125z" />
<glyph unicode="&#xf709;" d="M-534 1006q20 76 78 118q60 40 157 50v-50q-152 -18 -177 -118h-58z" />
<glyph unicode="&#xf70a;" d="M-172 1006v231h57v-231h-57z" />
<glyph unicode="&#xf70b;" d="M-444 1128v50h126v-122h36q146 0 207 80q17 22 23 42h52q-54 -172 -284 -172h-86v122h-74z" />
<glyph unicode="&#xf70c;" d="M-532 1006q6 97 72 134q19 10 38 10q60 0 92 -56q28 56 88 56q85 0 103 -97q47 4 82 43q36 39 41 82h50q-18 -112 -120 -160q-30 -12 -62 -12h-33q-11 68 -29 81t-34 13q-52 0 -62 -94h-47q-4 40 -21 67q-18 27 -38 27q-63 0 -68 -94h-52z" />
<glyph unicode="&#xf70d;" d="M-294 1112v51h124v105h55v-105h129v-51h-129v-106h-55v106h-124z" />
<glyph unicode="&#xf70e;" d="M-238 1006q39 147 236 168v-50q-152 -18 -177 -118h-59z" />
<glyph unicode="&#xf70f;" horiz-adv-x="1329" d="M52 608q50 163 210 224q58 22 130 22q133 0 206 -49t98 -128q24 -63 24 -169v-228q0 -112 65 -176t157 -64t154 63t62 169v568h56v-570q0 -133 -80 -208q-80 -74 -197 -74q-118 0 -196 83q-77 83 -77 207v238q0 278 -268 288q-112 -2 -185 -56t-97 -128q68 -49 68 -172 v-399h98v-49h-155v448q4 101 -73 160z" />
<glyph unicode="&#xf710;" d="M-584 1004v157h58v-104h571v-53h-629z" />
<glyph unicode="&#xf711;" d="M-538 1104q0 36 8 57q26 69 106 69q50 0 82 -32t32 -70t-8 -58q-27 -68 -119 -68q-37 0 -69 33t-32 69zM-490 1108q0 -22 18 -40t40 -18t34 5q40 17 40 61t-40 61q-12 5 -26 5t-27 -5t-21 -14t-13 -21t-5 -34z" />
<glyph unicode="&#xf712;" d="M-846 1154q0 71 58 108q58 36 141 36h397v-50h-397q-144 0 -144 -101q0 -45 28 -72t77 -27t84 52q10 16 15 34h43q8 -34 34 -60t66 -26t62 24t24 62h53q-6 -94 -79 -124q-24 -10 -56 -10q-90 0 -126 68q-42 -72 -143 -67t-128 93q-9 26 -9 60z" />
<glyph unicode="&#xf713;" d="M-340 1319v180h55v-180h-55z" />
<glyph unicode="&#xf714;" d="M-596 1442v48h127v-120h35q148 0 208 79q16 21 22 41h54q-51 -167 -286 -171h-86v123h-74z" />
<glyph unicode="&#xf715;" d="M-672 1319q6 95 72 135q19 10 39 10q60 0 91 -57q28 57 89 57q82 0 103 -98q43 4 82 45t41 79h50q-19 -118 -121 -158q-30 -12 -60 -13h-34q-10 95 -62 95t-63 -95h-47q-8 64 -42 87q-11 8 -24 8q-12 0 -24 -8q-33 -23 -37 -87h-53z" />
<glyph unicode="&#xf716;" d="M-466 1414v50h125v104h55v-104h129v-50h-129v-107h-55v107h-125z" />
<glyph unicode="&#xf717;" d="M-342 1217q39 147 236 168v-51q-157 -18 -178 -117h-58z" />
<glyph unicode="&#xf718;" d="M-246 -350h131v-234h-57v178h-74v56z" />
<glyph unicode="&#xf719;" d="M-561 -350h133v-90q0 -114 131 -114q64 0 87 21q22 21 32 43q8 22 8 54v86h57v-86q3 -113 -98 -154q-35 -14 -86 -14q-182 0 -186 164v37h-78v53z" />
<glyph unicode="&#xf71a;" d="M-227 -412q0 44 39 58q11 6 29 6t39 -19q18 -20 18 -39t-5 -30q-17 -37 -57 -37q-41 0 -58 37q-5 12 -5 24z" />
<glyph unicode="&#xf71d;" horiz-adv-x="1030" d="M53 840h59l186 -732l196 612h50l197 -613l126 475q13 62 13 92q0 118 -122 118v48q78 0 133 44t70 110h57q-22 -91 -94 -154q-24 -20 -50 -30q62 -38 62 -140q0 -46 -10 -84l-16 -60q-6 -22 -14 -51t-17 -65t-40 -147t-71 -263h-50l-198 625l-199 -625h-50z" />
<glyph unicode="&#xf881;" horiz-adv-x="1300" d="M52 606q61 182 236 232q56 16 120 16q194 0 281 -123q74 119 246 119t231 -146q20 -50 20 -116v-860h-58v864q0 101 -55 154q-55 52 -160 52q-104 0 -163 -73q-20 -24 -29 -56q27 -73 27 -163v-778h-58v786q0 222 -183 274q-43 12 -117 12q-110 0 -179 -60t-91 -120 q53 -44 59 -118q3 -26 3 -56v-394h98v-52h-155v446q0 86 -36 127q-14 15 -37 33z" />
<glyph unicode="&#xf882;" horiz-adv-x="1317" d="M43 0v50h99v396q0 88 -37 127q-15 15 -37 33q61 182 236 232q56 16 120 16q191 0 282 -123q33 53 97 86t130 33q194 0 249 -146q20 -50 20 -116v-860h-57v864q2 100 -55 153q-56 53 -161 53t-163 -73q-20 -24 -28 -56q26 -71 26 -163v-778h-57v786q0 123 -57 194 q-68 92 -226 92q-92 0 -136 -24q-117 -62 -152 -156q51 -43 60 -118q2 -26 2 -56v-446h-155z" />
<glyph d="M-573 1006q10 71 28 99q34 54 102 69q8 50 41 77q59 47 127 47v-54q-52 0 -83 -30t-36 -87q-62 -4 -85 -33t-33 -88h-61z" />
<glyph horiz-adv-x="696" d="M-538 1104q0 36 8 57q26 69 106 69q50 0 82 -32t32 -70t-8 -58q-27 -68 -119 -68q-37 0 -69 33t-32 69zM-490 1108q0 -22 18 -40t40 -18t34 5q40 17 40 61t-40 61q-12 5 -26 5t-27 -5t-21 -14t-13 -21t-5 -34zM57 656q10 48 36 85q79 109 235 109q110 0 182 -66t72 -196 v-588h-58v592q0 100 -55 153t-161 53t-166 -79q-20 -27 -27 -63h-58z" />
<glyph horiz-adv-x="696" d="M-538 1104q0 36 8 57q26 69 106 69q50 0 82 -32t32 -70t-8 -58q-27 -68 -119 -68q-37 0 -69 33t-32 69zM-490 1108q0 -22 18 -40t40 -18t34 5q40 17 40 61t-40 61q-12 5 -26 5t-27 -5t-21 -14t-13 -21t-5 -34zM57 656q10 48 36 85q79 109 235 109q110 0 182 -66t72 -196 v-588h-58v592q0 100 -55 153t-161 53t-166 -79q-20 -27 -27 -63h-58z" />
<glyph d="M-630 1004l26 53h489v-53h-515z" />
<glyph d="M-630 1004l26 53h432v129h57v-182h-515z" />
<glyph d="M-630 1004l26 53h288q-20 33 -20 63q0 83 73 116q22 10 47 10t47 -10q73 -33 73 -112q0 -48 -35 -84t-86 -36h-413zM-283 1116q0 -22 18 -40t40 -18q73 0 73 66q0 45 -39 61q-12 5 -26 5q-66 0 -66 -74z" />
<glyph d="M-630 1004l26 53h258v129h57v-129h117v129h57v-182h-515z" />
<glyph d="M-991 1004l26 53h721v-53h-747z" />
<glyph d="M-991 1004l26 53h664v129h57v-182h-747z" />
<glyph d="M-991 1004l26 53h549q-22 31 -22 76q0 44 35 77q35 37 83 37q49 0 85 -36t36 -85t-35 -86q-35 -36 -86 -36h-671zM-386 1116q0 -22 18 -40t40 -18q74 0 74 66q0 44 -40 61q-12 5 -26 5t-26 -5t-21 -14t-14 -21t-5 -34z" />
<glyph d="M-991 1004l26 53h490v129h57v-129h117v129h57v-182h-747z" />
<glyph d="M-299 1319v180h55v-180h-55z" />
<glyph d="M-586 1442v48h127v-120h35q152 0 208 79q16 21 22 41h54q-51 -167 -286 -171h-86v123h-74z" />
<glyph d="M-692 1319q6 97 72 135q18 10 38 10q60 0 92 -57q28 57 88 57q83 0 104 -98q45 4 81 44t41 80h50q-19 -117 -120 -158q-30 -12 -61 -13h-34q-12 69 -29 82q-18 13 -34 13q-51 0 -62 -95h-47q-7 63 -41 87q-12 8 -24 8q-51 0 -62 -95h-52z" />
<glyph d="M-424 1414v50h125v104h55v-104h129v-50h-129v-107h-55v107h-125z" />
<glyph d="M-938 1004l26 53h797v-53h-823z" />
<glyph d="M-938 1004l26 53h740v129h57v-182h-823z" />
<glyph d="M-938 1004l26 53h596q-20 29 -20 74t36 79.5t72 34.5q37 0 59 -9.5t38 -25.5t25.5 -38t9.5 -59t-34.5 -73t-86.5 -36h-721zM-283 1116q0 -22 18.5 -40t40.5 -18t33.5 5t20 14t13.5 21t5 26t-5 26t-13.5 21t-20.5 14t-26 5t-26.5 -5t-21.5 -14t-13.5 -21t-4.5 -34z" />
<glyph d="M-938 1004l26 53h566v129h57v-129h117v129h57v-182h-823z" />
<glyph d="M-170 1217v179h55v-179h-55z" />
<glyph d="M-444 1340v48h126v-120h36q182 0 230 120h52q-35 -117 -126.5 -144t-157.5 -27h-86v123h-74z" />
<glyph d="M-522 1217q4 63 36.5 104t82.5 41q51 0 83 -58q29 58 88 58q82 0 104 -98q43 4 80 43t42 81h50q-18 -116 -84 -143.5t-97 -27.5h-34q-11 94 -63 94t-62 -94h-47q-7 62 -30 78t-36 16t-37 -16.5t-24 -77.5h-52z" />
<glyph d="M-296 1323v51h126v104h54v-104h129v-51h-129v-106h-54v106h-126z" />
<glyph d="M-338 1217v179h55v-179h-55z" />
<glyph d="M-626 1340v48h126v-120h35q99 0 165 40q49 34 65 80h53q-34 -116 -169 -157q-49 -14 -116 -14h-85v123h-74z" />
<glyph d="M-734 1217q4 62 37 104q34 41 85 41q50 0 80 -58q29 58 90 58q81 0 102 -98q47 4 83 44q37 40 41 80h50q-18 -117 -121 -158q-30 -12 -61 -13h-34q-10 94 -62 94t-62 -94h-48q-7 61 -41 86q-11 8 -30 8t-37 -28t-18 -66h-54z" />
<glyph d="M-466 1323v51h124v104h55v-104h129v-51h-129v-106h-55v106h-124z" />
<glyph d="M-397 -130h129v-232h-58v178h-71v54z" />
<glyph d="M-592 -130h133v-89q-1 -114 129 -114t130 118v85h56v-85q0 -167 -184 -167q-136 0 -161 61t-25 102v37h-78v52z" />
<glyph d="M-376 -180q0 12 5 24t13.5 20.5t20 13.5t31 5t37 -19t17.5 -38t-5 -30.5t-13 -19.5t-19 -13t-24 -5t-24.5 5t-20 13t-13.5 20t-5 24z" />
<glyph d="M-378 -130h128v-232h-57v178h-71v54z" />
<glyph d="M-684 -130h133v-89q-1 -114 129 -114t130 118v85h56v-85q0 -167 -184 -167q-136 0 -161 61t-25 102v37h-78v52z" />
<glyph d="M-364 -180q0 26 18.5 44.5t37.5 18.5q33 0 50.5 -19t17.5 -38t-5 -30.5t-13 -19.5t-19 -13t-24 -5t-24.5 5t-25 17.5t-13.5 39.5z" />
<glyph d="M-563 1004v157h57v-104h644v-53h-701z" />
<glyph d="M-338 1319v180h55v-180h-55z" />
<glyph d="M-622 1442v48h126v-120h35q149 0 209 79q16 21 22 41h53q-56 -168 -286 -171h-85v123h-74z" />
<glyph d="M-734 1319q6 96 73 135q19 10 39 10q60 0 90 -57q28 57 90 57q81 0 102 -98q47 4 83 44t41 80h50q-12 -74 -64 -122q-53 -47 -118 -49h-34q-11 95 -62 95t-62 -95h-48q-7 63 -41 87q-11 8 -24 8q-44 0 -57 -60q-4 -17 -4 -35h-54z" />
<glyph d="M-466 1414v50h124v104h55v-104h129v-50h-129v-107h-55v107h-124z" />
</font>
</defs>
</svg>
